<svg width="671" height="809" viewBox="0 0 671 809" fill="none" xmlns="http://www.w3.org/2000/svg">
<path d="M647.345 638.665L377.324 806.061C365.367 813.473 349.91 804.92 349.84 790.852L349.556 733.675C349.521 726.73 353.092 720.265 358.988 716.595L578.954 579.696C583.647 576.776 586.5 571.64 586.5 566.112V329.628C586.5 326.505 583.082 324.586 580.416 326.213L346.473 468.998C339.429 473.297 330.573 473.293 323.533 468.988L90.0869 326.222C87.4215 324.592 84 326.511 84 329.635V566.112C84 571.64 86.853 576.776 91.5458 579.696L311.568 716.63C317.434 720.281 321 726.701 321 733.61V790.663C321 804.771 305.507 813.395 293.516 805.962L23.6549 638.665C8.94747 629.547 0 613.473 0 596.168V214.427C0 197.311 18.6853 186.751 33.3483 195.58L326.636 372.173C329.164 373.696 332.059 374.5 335.011 374.5C337.948 374.5 340.805 373.719 343.326 372.209C446.422 310.47 575.65 232.862 638.067 195.58C652.663 186.862 671 197.444 671 214.444V596.129C671 613.434 662.053 629.547 647.345 638.665Z" fill="#061426"/>
<path d="M152.065 234.935C152.065 232.213 153.59 229.721 156.014 228.482L231.642 189.841C239.152 186.004 248.065 191.459 248.065 199.892V293.565L152.978 236.548C152.412 236.208 152.065 235.596 152.065 234.935Z" fill="#60A5FA"/>
<path d="M271.065 178.697C271.065 173.365 274.071 168.488 278.834 166.092L351.141 129.727C358.648 125.952 367.5 131.409 367.5 139.811V326L344.744 339.446C338.431 343.177 330.583 343.153 324.292 339.385L271.979 308.048C271.412 307.708 271.065 307.095 271.065 306.434V178.697Z" fill="#3B82F6"/>
<path d="M391.065 118.18C391.065 112.857 394.061 107.987 398.813 105.587L472.689 68.2716C480.196 64.4795 489.065 69.9357 489.065 78.3464V252.5L453.5 274L393.916 309.85C392.662 310.604 391.065 309.701 391.065 308.238V118.18Z" fill="#2563EB"/>
<path d="M512.065 57.0939C512.065 51.8157 515.011 46.9789 519.701 44.5574L589.844 8.34151C597.282 4.50108 606.166 9.80975 606.308 18.1797L609.018 178.264C609.047 179.955 608.165 181.532 606.709 182.392L571 203.5L514.908 236.873C513.654 237.619 512.065 236.716 512.065 235.257V57.0939Z" fill="#1D4ED8"/>
</svg>
